<svg xmlns="http://www.w3.org/2000/svg" width="125.015" height="116.029" viewBox="0 0 125.015 116.029">
  <g id="Submit_Order" transform="translate(-3.498 -8.099)">
    <g id="Grupo_1229991" data-name="Grupo 1229991" transform="translate(3.498 8.099)">
      <g id="Grupo_1229757" data-name="Grupo 1229757" transform="translate(0.02 7.071)">
        <g id="Grupo_1229756" data-name="Grupo 1229756">
          <path id="Trazado_1307919" data-name="Trazado 1307919" d="M81.26,73.7l-75.6,43.725-2.022-1.172L3.518,57.892,5.54,59.064l75.6-43.725Z" transform="translate(-3.518 -15.339)" fill="#dedffb"/>
        </g>
      </g>
      <g id="Grupo_1229759" data-name="Grupo 1229759" transform="translate(0.022 49.622)">
        <g id="Grupo_1229758" data-name="Grupo 1229758">
          <path id="Trazado_1307920" data-name="Trazado 1307920" d="M5.657,118.451,3.64,117.273,3.52,58.907l2.018,1.178Z" transform="translate(-3.52 -58.907)" fill="#dedffb"/>
        </g>
      </g>
      <g id="Grupo_1229761" data-name="Grupo 1229761" transform="translate(2.039 7.069)">
        <g id="Grupo_1229760" data-name="Grupo 1229760">
          <path id="Trazado_1307921" data-name="Trazado 1307921" d="M81.189,15.337,81.309,73.7l-75.6,43.731L5.586,59.068Z" transform="translate(-5.586 -15.337)" fill="#f3f1fc"/>
        </g>
      </g>
      <g id="Grupo_1229763" data-name="Grupo 1229763" transform="translate(3.613 9.786)">
        <g id="Grupo_1229762" data-name="Grupo 1229762">
          <path id="Trazado_1307922" data-name="Trazado 1307922" d="M7.2,60.038l72.467-41.92.11,54.743L7.306,114.782Z" transform="translate(-7.197 -18.119)" fill="#fff"/>
        </g>
      </g>
      <g id="Grupo_1229765" data-name="Grupo 1229765" transform="translate(0)">
        <g id="Grupo_1229764" data-name="Grupo 1229764">
          <path id="Trazado_1307923" data-name="Trazado 1307923" d="M81.142,15.17,5.539,58.895,3.518,57.723,3.5,51.834,79.1,8.1l2.022,1.182Z" transform="translate(-3.498 -8.099)" fill="#5ec363"/>
        </g>
      </g>
      <g id="Grupo_1229767" data-name="Grupo 1229767" transform="translate(0.004 43.732)">
        <g id="Grupo_1229766" data-name="Grupo 1229766">
          <path id="Trazado_1307924" data-name="Trazado 1307924" d="M5.538,59.944,3.52,58.766,3.5,52.876l2.018,1.178Z" transform="translate(-3.502 -52.876)" fill="#5ec363"/>
        </g>
      </g>
      <g id="Grupo_1229769" data-name="Grupo 1229769" transform="translate(0.004 0.001)">
        <g id="Grupo_1229768" data-name="Grupo 1229768">
          <path id="Trazado_1307925" data-name="Trazado 1307925" d="M5.519,53.009,3.5,51.831,79.1,8.1l2.018,1.178Z" transform="translate(-3.502 -8.1)" fill="#78e75a"/>
        </g>
      </g>
      <g id="Grupo_1229771" data-name="Grupo 1229771" transform="translate(2.021 1.179)">
        <g id="Grupo_1229770" data-name="Grupo 1229770">
          <path id="Trazado_1307926" data-name="Trazado 1307926" d="M81.171,9.306l.018,5.89L5.586,58.927l-.018-5.89Z" transform="translate(-5.568 -9.306)" fill="#72d561"/>
        </g>
      </g>
      <g id="Grupo_1229773" data-name="Grupo 1229773" transform="translate(3.405 45.505)">
        <g id="Grupo_1229772" data-name="Grupo 1229772">
          <path id="Trazado_1307927" data-name="Trazado 1307927" d="M7.9,54.821c.52-.3.938-.063.939.535A2.063,2.063,0,0,1,7.9,56.973c-.511.295-.919.041-.921-.546A2.024,2.024,0,0,1,7.9,54.821Z" transform="translate(-6.984 -54.691)" fill="#fff"/>
        </g>
      </g>
      <g id="Grupo_1229775" data-name="Grupo 1229775" transform="translate(6.402 43.768)">
        <g id="Grupo_1229774" data-name="Grupo 1229774">
          <path id="Trazado_1307928" data-name="Trazado 1307928" d="M10.977,53.043c.52-.3.938-.063.939.535a2.063,2.063,0,0,1-.933,1.617c-.511.295-.928.046-.93-.54a2.043,2.043,0,0,1,.923-1.611Z" transform="translate(-10.053 -52.913)" fill="#fff"/>
        </g>
      </g>
      <g id="Grupo_1229777" data-name="Grupo 1229777" transform="translate(9.409 42.033)">
        <g id="Grupo_1229776" data-name="Grupo 1229776">
          <path id="Trazado_1307929" data-name="Trazado 1307929" d="M14.055,51.264c.511-.295.938-.063.939.535a2.08,2.08,0,0,1-.933,1.617c-.52.3-.928.046-.93-.54A2.026,2.026,0,0,1,14.055,51.264Z" transform="translate(-13.132 -51.137)" fill="#fff"/>
        </g>
      </g>
      <g id="Grupo_1229784" data-name="Grupo 1229784" transform="translate(68.172 3.96)">
        <g id="Grupo_1229779" data-name="Grupo 1229779" transform="translate(2.718 2.686)">
          <g id="Grupo_1229778" data-name="Grupo 1229778">
            <path id="Trazado_1307930" data-name="Trazado 1307930" d="M78.181,14.93c.1-.056.175-.016.175.1a.374.374,0,0,1-.174.3l-1.924,1.111c-.1.056-.175.016-.175-.1a.374.374,0,0,1,.174-.3Z" transform="translate(-76.083 -14.905)" fill="#fff"/>
          </g>
        </g>
        <g id="Grupo_1229781" data-name="Grupo 1229781" transform="translate(5.42)">
          <g id="Grupo_1229780" data-name="Grupo 1229780">
            <path id="Trazado_1307931" data-name="Trazado 1307931" d="M80.962,12.178a.122.122,0,0,1,.12-.013c.07.04.07.165,0,.281l-.847,1.467.852.486c.07.035.07.16,0,.281a.364.364,0,0,1-.12.127.125.125,0,0,1-.12.011L80,14.333,79.15,15.8a.381.381,0,0,1-.124.13.131.131,0,0,1-.12.011c-.066-.042-.067-.167,0-.281l.847-1.467-.852-.486c-.066-.038-.066-.163,0-.281a.345.345,0,0,1,.121-.127.131.131,0,0,1,.124-.015l.852.486.847-1.467A.345.345,0,0,1,80.962,12.178Z" transform="translate(-78.849 -12.154)" fill="#fff"/>
          </g>
        </g>
        <g id="Grupo_1229783" data-name="Grupo 1229783" transform="translate(0 3.594)">
          <g id="Grupo_1229782" data-name="Grupo 1229782">
            <path id="Trazado_1307932" data-name="Trazado 1307932" d="M75.01,15.856c.093-.054.171-.009.171.1l.005,1.765a.38.38,0,0,1-.17.3l-1.54.889c-.093.054-.171.009-.171-.1L73.3,17.045a.38.38,0,0,1,.17-.3Zm-.17,1.871,0-1.373-1.191.688,0,1.373Z" transform="translate(-73.3 -15.834)" fill="#fff"/>
          </g>
        </g>
      </g>
      <g id="Grupo_1229862" data-name="Grupo 1229862" transform="translate(79.322 12.685)">
        <g id="Grupo_1229852" data-name="Grupo 1229852" transform="translate(0 13.14)">
          <g id="Grupo_1229786" data-name="Grupo 1229786" transform="translate(8.835 1.913)">
            <g id="Grupo_1229785" data-name="Grupo 1229785">
              <path id="Trazado_1307933" data-name="Trazado 1307933" d="M111.829,53.49s-5.71,7.09-8.305,6.893c-3.818-.291-6.841-2.209-9.761-4.571l.255-1.133.136-.6L94.58,52.2l7.651,2.084a.6.6,0,0,0,.757-.55c.388-8.54,1.309-15.778,5.383-17.046a4.412,4.412,0,0,1,1.006-.185l2.063,14.289Z" transform="translate(-93.763 -36.5)" fill="#aa6256"/>
            </g>
          </g>
          <g id="Grupo_1229788" data-name="Grupo 1229788" transform="translate(9.226 1.913)">
            <g id="Grupo_1229787" data-name="Grupo 1229787">
              <path id="Trazado_1307934" data-name="Trazado 1307934" d="M111.449,50.789l-.158.231s-5.71,7.09-8.306,6.892c-3.411-.259-6.186-1.817-8.821-3.832L94.59,52.2l7.651,2.084a.6.6,0,0,0,.757-.55c.388-8.54,1.309-15.778,5.383-17.046a4.411,4.411,0,0,1,1.006-.185Z" transform="translate(-94.163 -36.5)" fill="#bf7d5a"/>
            </g>
          </g>
          <g id="Grupo_1229821" data-name="Grupo 1229821" transform="translate(16.748)">
            <g id="Grupo_1229820" data-name="Grupo 1229820">
              <g id="Grupo_1229819" data-name="Grupo 1229819">
                <g id="Grupo_1229818" data-name="Grupo 1229818">
                  <g id="Grupo_1229817" data-name="Grupo 1229817">
                    <g id="Grupo_1229816" data-name="Grupo 1229816">
                      <g id="Grupo_1229815" data-name="Grupo 1229815">
                        <g id="Grupo_1229814" data-name="Grupo 1229814">
                          <g id="Grupo_1229813" data-name="Grupo 1229813">
                            <g id="Grupo_1229805" data-name="Grupo 1229805" transform="translate(0 31.964)">
                              <g id="Grupo_1229790" data-name="Grupo 1229790" transform="translate(15.814 45.596)">
                                <g id="Grupo_1229789" data-name="Grupo 1229789">
                                  <path id="Trazado_1307935" data-name="Trazado 1307935" d="M118.057,113.955h5.016v4.617h-5.016Z" transform="translate(-118.057 -113.955)" fill="#f4d6d4"/>
                                </g>
                              </g>
                              <g id="Grupo_1229792" data-name="Grupo 1229792" transform="translate(13.992 48.762)">
                                <g id="Grupo_1229791" data-name="Grupo 1229791">
                                  <path id="Trazado_1307936" data-name="Trazado 1307936" d="M123.039,117.2l.168,5.525a3.6,3.6,0,0,1-2.367,3.515l-.039.014a6.343,6.343,0,0,1-3.737.242,1.226,1.226,0,0,1-.866-1.322,42.6,42.6,0,0,1,1.2-6.362,1.5,1.5,0,0,1,.485-.75,6.815,6.815,0,0,0,.652-.684.526.526,0,0,1,.393-.178h2.029a.517.517,0,0,1,.471.3.741.741,0,0,0,1.266.144Z" transform="translate(-116.191 -117.197)" fill="#e3e7f0"/>
                                </g>
                              </g>
                              <g id="Grupo_1229794" data-name="Grupo 1229794" transform="translate(6.672 39.187)">
                                <g id="Grupo_1229793" data-name="Grupo 1229793">
                                  <path id="Trazado_1307937" data-name="Trazado 1307937" d="M108.82,108.962l-.124,2.711,3.353,1.119,2.323-1.439-.5-2.391s-4.057-1.646-4.117-1.566S108.82,108.962,108.82,108.962Z" transform="translate(-108.696 -107.393)" fill="#f4d6d4"/>
                                </g>
                              </g>
                              <g id="Grupo_1229796" data-name="Grupo 1229796" transform="translate(0 41.617)">
                                <g id="Grupo_1229795" data-name="Grupo 1229795">
                                  <path id="Trazado_1307938" data-name="Trazado 1307938" d="M108.3,109.932s-7.135,6.235-6.375,7.714c.393.765,1.711.961,2.892.972a6.039,6.039,0,0,0,3.389-1l5.463-3.723a1.853,1.853,0,0,0,.764-1.171,1.735,1.735,0,0,0-.034-.739l-.447-1.829-.5.145-.71.85a1.383,1.383,0,0,1-2.271-.216,1.873,1.873,0,0,0-2.168-1Z" transform="translate(-101.865 -109.881)" fill="#e3e7f0"/>
                                </g>
                              </g>
                              <g id="Grupo_1229798" data-name="Grupo 1229798" transform="translate(3.747)">
                                <g id="Grupo_1229797" data-name="Grupo 1229797">
                                  <path id="Trazado_1307939" data-name="Trazado 1307939" d="M114.208,91.629a36.446,36.446,0,0,1-.007,16.329c-.034.458-1.508.583-3,.482-1.573-.105-3.168-.46-3.132-.942l-.719-14.809L105.7,67.6l5.3-.333.871.29,3.331,1.115-1.23,20.036a10.662,10.662,0,0,0,.233,2.919Z" transform="translate(-105.701 -67.269)" fill="#4c5c75"/>
                                </g>
                              </g>
                              <g id="Grupo_1229800" data-name="Grupo 1229800" transform="translate(6.985 0.29)">
                                <g id="Grupo_1229799" data-name="Grupo 1229799">
                                  <path id="Trazado_1307940" data-name="Trazado 1307940" d="M114.285,91.636a36.446,36.446,0,0,1-.007,16.329c-.034.458-1.508.583-3,.482l-.614-15.609-1.645-25.085,2.935-.187,3.331,1.115-1.23,20.036a10.661,10.661,0,0,0,.233,2.919Z" transform="translate(-109.016 -67.566)" fill="#455368"/>
                                </g>
                              </g>
                              <g id="Grupo_1229802" data-name="Grupo 1229802" transform="translate(10.023 0)">
                                <g id="Grupo_1229801" data-name="Grupo 1229801">
                                  <path id="Trazado_1307941" data-name="Trazado 1307941" d="M123.782,113.254c0,.741-1.71,1.106-3.389,1.091-1.621-.01-3.214-.374-3.214-1.091l-1.17-19.185-3.883-23.936,2.832-1.281,3.508-1.583,4.017,2.338a69.005,69.005,0,0,1,0,22.981,5.29,5.29,0,0,0,.338,2.724c1.377,3.492,1.441,9.6.957,17.941Z" transform="translate(-112.127 -67.269)" fill="#4c5c75"/>
                                </g>
                              </g>
                              <g id="Grupo_1229804" data-name="Grupo 1229804" transform="translate(12.855 0)">
                                <g id="Grupo_1229803" data-name="Grupo 1229803">
                                  <path id="Trazado_1307942" data-name="Trazado 1307942" d="M123.85,113.254c0,.741-1.71,1.106-3.389,1.091l-1.333-20.276-4.1-25.217,3.508-1.583,4.017,2.338a69.006,69.006,0,0,1,0,22.981,5.291,5.291,0,0,0,.338,2.724c1.377,3.492,1.441,9.6.957,17.941Z" transform="translate(-115.027 -67.269)" fill="#455368"/>
                                </g>
                              </g>
                            </g>
                            <g id="Grupo_1229807" data-name="Grupo 1229807" transform="translate(3.33 1.913)">
                              <g id="Grupo_1229806" data-name="Grupo 1229806">
                                <path id="Trazado_1307943" data-name="Trazado 1307943" d="M125.11,42.963s-7.676-6.653-15.332-6.459c-3.707,1.845-4.928,6.844-4.355,14.119.787,5.268-.019,11.893-.134,17.348,0,.026,0,.053-.005.079-.464,4.649,15.728,5.858,17.264,1.548a1.154,1.154,0,0,0-.01-.759c-1.324-3.883-2.313-8.789.066-14.2a16.963,16.963,0,0,0,1.222-4.02Z" transform="translate(-105.274 -36.5)" fill="#dba660"/>
                              </g>
                            </g>
                            <g id="Grupo_1229812" data-name="Grupo 1229812" transform="translate(8.86)">
                              <g id="Grupo_1229809" data-name="Grupo 1229809" transform="translate(0 1.845)">
                                <g id="Grupo_1229808" data-name="Grupo 1229808">
                                  <path id="Trazado_1307944" data-name="Trazado 1307944" d="M110.938,40.575a2.623,2.623,0,0,0,1.605,2.34,5.044,5.044,0,0,0,5.284-.847,8.116,8.116,0,0,0,2.052-2.71,24.679,24.679,0,0,0-6.321-2.8v0c-.175-.048-.352-.091-.527-.128-.668.466-1.195.835-1.195.835A6.481,6.481,0,0,0,110.938,40.575Z" transform="translate(-110.937 -36.431)" fill="#aa6256"/>
                                </g>
                              </g>
                              <g id="Grupo_1229811" data-name="Grupo 1229811" transform="translate(1.294)">
                                <g id="Grupo_1229810" data-name="Grupo 1229810">
                                  <path id="Trazado_1307945" data-name="Trazado 1307945" d="M112.362,39.356l.4-1.7,5.154-3.117.966,4.169A6.176,6.176,0,0,1,116.8,41.4a3.973,3.973,0,0,1-3.419.43,1.425,1.425,0,0,1-1.074-1.048,1.774,1.774,0,0,1-.038-.586S112.339,39.454,112.362,39.356Z" transform="translate(-112.262 -34.541)" fill="#f5c9c6"/>
                                </g>
                              </g>
                            </g>
                          </g>
                        </g>
                      </g>
                    </g>
                  </g>
                </g>
              </g>
            </g>
          </g>
          <g id="Grupo_1229833" data-name="Grupo 1229833" transform="translate(31.433 7.837)">
            <g id="Grupo_1229826" data-name="Grupo 1229826" transform="translate(0 32.208)">
              <g id="Grupo_1229823" data-name="Grupo 1229823" transform="translate(0.197)">
                <g id="Grupo_1229822" data-name="Grupo 1229822">
                  <path id="Trazado_1307946" data-name="Trazado 1307946" d="M120.842,81.968c-.116.112-.238.225-.364.328a.3.3,0,0,1-.028-.016,7.717,7.717,0,0,1-3.346-3.757,4.335,4.335,0,0,1,.339-.306c.808-.692,2.963-2.673,2.963-2.673a2.639,2.639,0,0,1,2.789,2.109,8.537,8.537,0,0,1-2.352,4.315Z" transform="translate(-117.102 -75.544)" fill="#f5c9c6"/>
                </g>
              </g>
              <g id="Grupo_1229825" data-name="Grupo 1229825" transform="translate(0 2.221)">
                <g id="Grupo_1229824" data-name="Grupo 1229824">
                  <path id="Trazado_1307947" data-name="Trazado 1307947" d="M121.431,82.612l-.185.163c-.269-.135-.526-.274-.773-.426a.309.309,0,0,1-.028-.016,7.717,7.717,0,0,1-3.346-3.757s0,0,0-.005c-.071-.157-.134-.328-.194-.5l.166-.252c.123.146.235.308.37.452a41.6,41.6,0,0,0,3.4,3.751C121.022,82.221,121.232,82.415,121.431,82.612Z" transform="translate(-116.901 -77.818)" fill="#1d2943"/>
                </g>
              </g>
            </g>
            <g id="Grupo_1229828" data-name="Grupo 1229828" transform="translate(1.74 30.909)">
              <g id="Grupo_1229827" data-name="Grupo 1229827">
                <path id="Trazado_1307948" data-name="Trazado 1307948" d="M120.669,74.213c-.594.811-1.231,1.622-1.89,2.459-.715.8,2.784,3.916,3.5,3.113a42.632,42.632,0,0,0,4.338-5.572Z" transform="translate(-118.683 -74.213)" fill="#f3f1fc"/>
              </g>
            </g>
            <g id="Grupo_1229830" data-name="Grupo 1229830" transform="translate(1.86)">
              <g id="Grupo_1229829" data-name="Grupo 1229829">
                <path id="Trazado_1307949" data-name="Trazado 1307949" d="M130.906,65.659c-2.051,5.657-3.813,8.335-8.137,13.143-.421.474-1.716-.285-2.712-1.228-.87-.824-1.513-1.791-1.146-2.2,3.176-4.037,5.3-6.694,5.5-11.964.155-4.217-4.272-16.333-4.272-16.333a3.56,3.56,0,0,1,6.706-2.344c1.761,4.113,3.19,11.259,4.228,17.462a7.134,7.134,0,0,1-.166,3.467Z" transform="translate(-118.806 -42.566)" fill="#aa6256"/>
              </g>
            </g>
            <g id="Grupo_1229832" data-name="Grupo 1229832" transform="translate(1.861 0.113)">
              <g id="Grupo_1229831" data-name="Grupo 1229831">
                <path id="Trazado_1307950" data-name="Trazado 1307950" d="M127.73,64.952c-1.976,5.45-3.682,8.135-7.673,12.625-.87-.824-1.513-1.791-1.146-2.2,3.176-4.037,5.3-6.694,5.5-11.964.155-4.217-4.272-16.333-4.272-16.333a3.569,3.569,0,0,1,2.534-4.395,3.564,3.564,0,0,1,1,1.341c1.761,4.112,3.19,11.259,4.228,17.462a7.119,7.119,0,0,1-.167,3.467Z" transform="translate(-118.806 -42.682)" fill="#bf7d5a"/>
              </g>
            </g>
          </g>
          <g id="Grupo_1229841" data-name="Grupo 1229841" transform="translate(0 8.834)">
            <g id="Grupo_1229840" data-name="Grupo 1229840">
              <g id="Grupo_1229836" data-name="Grupo 1229836" transform="translate(15.501 20.6)">
                <g id="Grupo_1229835" data-name="Grupo 1229835">
                  <g id="Grupo_1229834" data-name="Grupo 1229834">
                    <path id="Trazado_1307951" data-name="Trazado 1307951" d="M100.588,65.226c.1-.1.107-.283.019-.547C100.705,64.943,100.686,65.128,100.588,65.226Z" transform="translate(-100.588 -64.679)" fill="#9ea9c9"/>
                  </g>
                </g>
              </g>
              <g id="Grupo_1229839" data-name="Grupo 1229839">
                <g id="Grupo_1229838" data-name="Grupo 1229838">
                  <g id="Grupo_1229837" data-name="Grupo 1229837">
                    <path id="Trazado_1307952" data-name="Trazado 1307952" d="M101.126,63.845l-.908.889c.1-.1.117-.283.02-.547.088.264.078.449-.02.547-.137.137-.44.1-.84-.137l-8.36-4.825a4.272,4.272,0,0,1-1.67-1.865L84.777,45.093c-.088-.254-.078-.44.019-.537l.908-.9c.137-.127.44-.088.85.147l8.35,4.825a4.155,4.155,0,0,1,1.67,1.865l4.571,12.8c.1.264.078.449-.02.547Z" transform="translate(-84.716 -43.586)" fill="#9ea9c9"/>
                    <path id="Trazado_1307953" data-name="Trazado 1307953" d="M100.588,65.226c.1-.1.107-.283.019-.547C100.705,64.943,100.686,65.128,100.588,65.226Z" transform="translate(-85.087 -44.079)" fill="#9ea9c9"/>
                  </g>
                </g>
              </g>
            </g>
          </g>
          <g id="Grupo_1229849" data-name="Grupo 1229849" transform="translate(0.001 8.833)">
            <g id="Grupo_1229848" data-name="Grupo 1229848">
              <g id="Grupo_1229844" data-name="Grupo 1229844" transform="translate(0.082)">
                <g id="Grupo_1229843" data-name="Grupo 1229843">
                  <g id="Grupo_1229842" data-name="Grupo 1229842">
                    <path id="Trazado_1307954" data-name="Trazado 1307954" d="M101.129,63.843l-.91.891c.1-.1.112-.281.018-.545l-4.566-12.8A4.239,4.239,0,0,0,94,49.514l-8.355-4.824c-.405-.234-.706-.271-.842-.138l.91-.891c.136-.133.436-.1.843.138l8.354,4.824a4.24,4.24,0,0,1,1.672,1.869l4.566,12.8c.094.263.081.448-.018.545Z" transform="translate(-84.802 -43.585)" fill="#e3e7f0"/>
                  </g>
                </g>
              </g>
              <g id="Grupo_1229847" data-name="Grupo 1229847" transform="translate(0 0.891)">
                <g id="Grupo_1229846" data-name="Grupo 1229846">
                  <g id="Grupo_1229845" data-name="Grupo 1229845">
                    <path id="Trazado_1307955" data-name="Trazado 1307955" d="M94,49.536A4.246,4.246,0,0,1,95.668,51.4l4.566,12.806c.224.628-.161.81-.86.407l-8.355-4.824a4.246,4.246,0,0,1-1.672-1.869L84.781,45.119c-.224-.628.161-.81.86-.407Z" transform="translate(-84.717 -44.498)" fill="#9ea9c9"/>
                  </g>
                </g>
              </g>
            </g>
          </g>
          <g id="Grupo_1229851" data-name="Grupo 1229851" transform="translate(1.847 16.089)">
            <g id="Grupo_1229850" data-name="Grupo 1229850">
              <path id="Trazado_1307956" data-name="Trazado 1307956" d="M86.631,52.588a1.194,1.194,0,0,1,.838-1.379,2.835,2.835,0,0,1,2.767.354,6.362,6.362,0,0,1,1.307,4.352.82.82,0,0,1-.86.726l-1.784-.1a1.193,1.193,0,0,1-1.1-.958Z" transform="translate(-86.608 -51.015)" fill="#f5c9c6"/>
            </g>
          </g>
        </g>
        <g id="Grupo_1229861" data-name="Grupo 1229861" transform="translate(22.696)">
          <g id="Grupo_1229860" data-name="Grupo 1229860">
            <g id="Grupo_1229859" data-name="Grupo 1229859">
              <g id="Grupo_1229854" data-name="Grupo 1229854" transform="translate(0.177 3.832)">
                <g id="Grupo_1229853" data-name="Grupo 1229853">
                  <path id="Trazado_1307957" data-name="Trazado 1307957" d="M108.3,27.229s-1.047,7.136,2.137,11.865a2.009,2.009,0,0,0,1.4.818c1.819.075,6.461.377,9.635-6.9l-1.292-6.4-8.044-1.6Z" transform="translate(-108.136 -25.01)" fill="#f4d6d4"/>
                </g>
              </g>
              <g id="Grupo_1229856" data-name="Grupo 1229856" transform="translate(8.452 5.725)">
                <g id="Grupo_1229855" data-name="Grupo 1229855">
                  <path id="Trazado_1307958" data-name="Trazado 1307958" d="M122.4,27.033s.472,4.177-.729,6.024c0,0-.4-1.046-1.266-.81a1.11,1.11,0,0,0-.543.354,7.144,7.144,0,0,1-1.355,1.27.545.545,0,0,1-.642-.059c-1.058-.913-1.4-2.406-1.2-4.344l4.546-2.518Z" transform="translate(-116.608 -26.949)" fill="#1d2943"/>
                </g>
              </g>
              <g id="Grupo_1229858" data-name="Grupo 1229858">
                <g id="Grupo_1229857" data-name="Grupo 1229857">
                  <path id="Trazado_1307959" data-name="Trazado 1307959" d="M122.195,26.9c-.288-3.2-1.867-5-4.89-5.679a7.57,7.57,0,0,0-6.2,1.461,6.173,6.173,0,0,1,1.028-1.329c-1.253.522-2.364,1.154-2.605,2.451a5.767,5.767,0,0,1,.4-1.618,4.041,4.041,0,0,0-1.334,2.834l-.541-.915c-.242,1.7-.046,3.128.979,4.022,1.393,1.192,3.907,1.6,7.569,1.192A9.46,9.46,0,0,0,122.195,26.9Z" transform="translate(-107.954 -21.087)" fill="#4c5c75"/>
                </g>
              </g>
            </g>
          </g>
        </g>
      </g>
      <g id="Grupo_1229990" data-name="Grupo 1229990" transform="translate(5.819 16.344)">
        <g id="Grupo_1229875" data-name="Grupo 1229875" transform="translate(0.401 24.145)">
          <g id="Grupo_1229865" data-name="Grupo 1229865" transform="translate(9.206 31.259)">
            <g id="Grupo_1229864" data-name="Grupo 1229864">
              <g id="Grupo_1229863" data-name="Grupo 1229863">
                <path id="Trazado_1307960" data-name="Trazado 1307960" d="M22.853,81.562a1.507,1.507,0,0,1,.485,1.235,4.431,4.431,0,0,1-2.016,3.492c-1.117.645-2.026.127-2.029-1.156a3.994,3.994,0,0,1,.479-1.791Z" transform="translate(-19.293 -81.562)" fill="#4c5c75"/>
              </g>
            </g>
          </g>
          <g id="Grupo_1229874" data-name="Grupo 1229874">
            <g id="Grupo_1229868" data-name="Grupo 1229868" transform="translate(23.088 23.243)">
              <g id="Grupo_1229867" data-name="Grupo 1229867">
                <g id="Grupo_1229866" data-name="Grupo 1229866">
                  <path id="Trazado_1307961" data-name="Trazado 1307961" d="M37.068,73.355a1.507,1.507,0,0,1,.485,1.235,4.431,4.431,0,0,1-2.016,3.492c-1.117.645-2.026.127-2.029-1.156a3.994,3.994,0,0,1,.479-1.791Z" transform="translate(-33.507 -73.355)" fill="#4c5c75"/>
                </g>
              </g>
            </g>
            <g id="Grupo_1229871" data-name="Grupo 1229871" transform="translate(6.319)">
              <g id="Grupo_1229870" data-name="Grupo 1229870">
                <g id="Grupo_1229869" data-name="Grupo 1229869">
                  <path id="Trazado_1307962" data-name="Trazado 1307962" d="M39.8,49.7c.616-.356,1.1-.029,1.038.717l-1.17,13.86a2.3,2.3,0,0,1-1.031,1.659l-20.3,11.722c0-.115.111.763-1.994-14.413ZM23.641,70.38l-.02-7.135c0-.45-.323-.634-.715-.408a1.563,1.563,0,0,0-.717,1.234l.02,7.135c0,.465.317.645.722.411a1.563,1.563,0,0,0,.71-1.238m5.33-3.077-.02-7.135c0-.45-.323-.634-.715-.407a1.575,1.575,0,0,0-.717,1.234l.02,7.135c0,.465.323.641.722.411a1.563,1.563,0,0,0,.71-1.238m5.336-3.081-.02-7.135c0-.45-.323-.634-.715-.407a1.573,1.573,0,0,0-.71,1.23l.02,7.135c0,.465.323.641.715.415a1.563,1.563,0,0,0,.71-1.238" transform="translate(-16.337 -49.556)" fill="#f45170"/>
                </g>
              </g>
            </g>
            <g id="Grupo_1229873" data-name="Grupo 1229873" transform="translate(0 10.477)">
              <g id="Grupo_1229872" data-name="Grupo 1229872">
                <path id="Trazado_1307963" data-name="Trazado 1307963" d="M40.431,68.992,17.365,82.309c-.5.288-.658-.212-.439-.751l1.271-3.1c.3-.765.131.2-1.878-14.982a1,1,0,0,0-.081-.343l-1.157-2.278c-.269-.549-.916-.788-1.708-.327L10.645,62.1a1.688,1.688,0,0,0-.778,1.348.566.566,0,0,0,.917.526l2.754-1.585,1.1,2.191,1.941,13.973-1.117,2.725c-.969,2.344.26,3.931,2.041,2.9L40.57,70.866a1.687,1.687,0,0,0,.778-1.348.568.568,0,0,0-.917-.526Z" transform="translate(-9.867 -60.284)" fill="#dedffb"/>
              </g>
            </g>
          </g>
        </g>
        <g id="Grupo_1229930" data-name="Grupo 1229930" transform="translate(36.006)">
          <g id="Grupo_1229893" data-name="Grupo 1229893">
            <g id="Grupo_1229878" data-name="Grupo 1229878" transform="translate(0 15.051)">
              <g id="Grupo_1229877" data-name="Grupo 1229877">
                <g id="Grupo_1229876" data-name="Grupo 1229876">
                  <path id="Trazado_1307964" data-name="Trazado 1307964" d="M52.07,40.245l.019,6.6-5.747,3.318-.019-6.6Z" transform="translate(-46.323 -40.245)" fill="#b28afd"/>
                </g>
              </g>
            </g>
            <g id="Grupo_1229881" data-name="Grupo 1229881" transform="translate(7.774 7.305)">
              <g id="Grupo_1229880" data-name="Grupo 1229880">
                <g id="Grupo_1229879" data-name="Grupo 1229879">
                  <path id="Trazado_1307965" data-name="Trazado 1307965" d="M70.521,32.313l0,1.016L54.285,42.7l0-1.016Z" transform="translate(-54.283 -32.313)" fill="#dedffb"/>
                </g>
              </g>
            </g>
            <g id="Grupo_1229884" data-name="Grupo 1229884" transform="translate(7.781 5.205)">
              <g id="Grupo_1229883" data-name="Grupo 1229883">
                <g id="Grupo_1229882" data-name="Grupo 1229882">
                  <path id="Trazado_1307966" data-name="Trazado 1307966" d="M78.667,30.163,54.29,44.237l0,1.016L78.667,31.18Z" transform="translate(-54.29 -30.163)" fill="#dedffb"/>
                </g>
              </g>
            </g>
            <g id="Grupo_1229887" data-name="Grupo 1229887" transform="translate(7.766)">
              <g id="Grupo_1229886" data-name="Grupo 1229886">
                <g id="Grupo_1229885" data-name="Grupo 1229885">
                  <path id="Trazado_1307967" data-name="Trazado 1307967" d="M78.666,24.834,54.275,38.916l0,1.016L78.666,25.851Z" transform="translate(-54.275 -24.834)" fill="#dedffb"/>
                </g>
              </g>
            </g>
            <g id="Grupo_1229892" data-name="Grupo 1229892" transform="translate(0.941 17.17)">
              <g id="Grupo_1229891" data-name="Grupo 1229891">
                <g id="Grupo_1229890" data-name="Grupo 1229890">
                  <g id="Grupo_1229889" data-name="Grupo 1229889">
                    <g id="Grupo_1229888" data-name="Grupo 1229888">
                      <path id="Trazado_1307968" data-name="Trazado 1307968" d="M51.084,42.951,48.77,46.958c-.094.164-.293.335-.454.246l-.927-.529c-.158-.1-.111-.349-.017-.514s.3-.334.456-.243l.687.393,2.094-3.628c.1-.165.285-.331.456-.246C51.222,42.531,51.18,42.782,51.084,42.951Z" transform="translate(-47.286 -42.414)" fill="#fff"/>
                    </g>
                  </g>
                </g>
              </g>
            </g>
          </g>
          <g id="Grupo_1229911" data-name="Grupo 1229911" transform="translate(0 9.865)">
            <g id="Grupo_1229896" data-name="Grupo 1229896" transform="translate(0 15.051)">
              <g id="Grupo_1229895" data-name="Grupo 1229895">
                <g id="Grupo_1229894" data-name="Grupo 1229894">
                  <path id="Trazado_1307969" data-name="Trazado 1307969" d="M52.07,50.346l.019,6.6-5.747,3.318-.019-6.6Z" transform="translate(-46.323 -50.346)" fill="#9ea9c9"/>
                </g>
              </g>
            </g>
            <g id="Grupo_1229899" data-name="Grupo 1229899" transform="translate(7.774 7.305)">
              <g id="Grupo_1229898" data-name="Grupo 1229898">
                <g id="Grupo_1229897" data-name="Grupo 1229897">
                  <path id="Trazado_1307970" data-name="Trazado 1307970" d="M70.521,42.414l0,1.016L54.285,52.805l0-1.016Z" transform="translate(-54.283 -42.414)" fill="#dedffb"/>
                </g>
              </g>
            </g>
            <g id="Grupo_1229902" data-name="Grupo 1229902" transform="translate(7.781 5.205)">
              <g id="Grupo_1229901" data-name="Grupo 1229901">
                <g id="Grupo_1229900" data-name="Grupo 1229900">
                  <path id="Trazado_1307971" data-name="Trazado 1307971" d="M78.667,40.264,54.29,54.338l0,1.016L78.667,41.281Z" transform="translate(-54.29 -40.264)" fill="#dedffb"/>
                </g>
              </g>
            </g>
            <g id="Grupo_1229905" data-name="Grupo 1229905" transform="translate(7.766)">
              <g id="Grupo_1229904" data-name="Grupo 1229904">
                <g id="Grupo_1229903" data-name="Grupo 1229903">
                  <path id="Trazado_1307972" data-name="Trazado 1307972" d="M78.666,34.935,54.275,49.017l0,1.016L78.666,35.952Z" transform="translate(-54.275 -34.935)" fill="#dedffb"/>
                </g>
              </g>
            </g>
            <g id="Grupo_1229910" data-name="Grupo 1229910" transform="translate(0.941 17.17)">
              <g id="Grupo_1229909" data-name="Grupo 1229909">
                <g id="Grupo_1229908" data-name="Grupo 1229908">
                  <g id="Grupo_1229907" data-name="Grupo 1229907">
                    <g id="Grupo_1229906" data-name="Grupo 1229906">
                      <path id="Trazado_1307973" data-name="Trazado 1307973" d="M51.084,53.052,48.77,57.058c-.094.163-.292.335-.454.246l-.927-.529c-.158-.1-.111-.349-.017-.514s.3-.334.456-.243l.687.393,2.094-3.628c.1-.165.285-.331.456-.246C51.222,52.631,51.18,52.882,51.084,53.052Z" transform="translate(-47.286 -52.515)" fill="#fff"/>
                    </g>
                  </g>
                </g>
              </g>
            </g>
          </g>
          <g id="Grupo_1229929" data-name="Grupo 1229929" transform="translate(0 19.729)">
            <g id="Grupo_1229914" data-name="Grupo 1229914" transform="translate(0 15.051)">
              <g id="Grupo_1229913" data-name="Grupo 1229913">
                <g id="Grupo_1229912" data-name="Grupo 1229912">
                  <path id="Trazado_1307974" data-name="Trazado 1307974" d="M52.07,60.446l.019,6.6-5.747,3.318-.019-6.6Z" transform="translate(-46.323 -60.446)" fill="#ffd06c"/>
                </g>
              </g>
            </g>
            <g id="Grupo_1229917" data-name="Grupo 1229917" transform="translate(7.774 7.305)">
              <g id="Grupo_1229916" data-name="Grupo 1229916">
                <g id="Grupo_1229915" data-name="Grupo 1229915">
                  <path id="Trazado_1307975" data-name="Trazado 1307975" d="M70.521,52.515l0,1.016L54.285,62.906l0-1.016Z" transform="translate(-54.283 -52.515)" fill="#dedffb"/>
                </g>
              </g>
            </g>
            <g id="Grupo_1229920" data-name="Grupo 1229920" transform="translate(7.781 5.205)">
              <g id="Grupo_1229919" data-name="Grupo 1229919">
                <g id="Grupo_1229918" data-name="Grupo 1229918">
                  <path id="Trazado_1307976" data-name="Trazado 1307976" d="M78.667,50.364,54.29,64.438l0,1.016L78.667,51.381Z" transform="translate(-54.29 -50.364)" fill="#dedffb"/>
                </g>
              </g>
            </g>
            <g id="Grupo_1229923" data-name="Grupo 1229923" transform="translate(7.766)">
              <g id="Grupo_1229922" data-name="Grupo 1229922">
                <g id="Grupo_1229921" data-name="Grupo 1229921">
                  <path id="Trazado_1307977" data-name="Trazado 1307977" d="M78.666,45.035,54.275,59.117l0,1.016L78.666,46.052Z" transform="translate(-54.275 -45.035)" fill="#dedffb"/>
                </g>
              </g>
            </g>
            <g id="Grupo_1229928" data-name="Grupo 1229928" transform="translate(0.941 17.17)">
              <g id="Grupo_1229927" data-name="Grupo 1229927">
                <g id="Grupo_1229926" data-name="Grupo 1229926">
                  <g id="Grupo_1229925" data-name="Grupo 1229925">
                    <g id="Grupo_1229924" data-name="Grupo 1229924">
                      <path id="Trazado_1307978" data-name="Trazado 1307978" d="M51.084,63.153,48.77,67.159c-.094.164-.293.335-.454.246l-.927-.529c-.158-.1-.111-.349-.017-.514s.3-.334.456-.243l.687.393,2.094-3.628c.1-.165.285-.331.456-.246.156.093.113.345.017.514Z" transform="translate(-47.286 -62.615)" fill="#fff"/>
                    </g>
                  </g>
                </g>
              </g>
            </g>
          </g>
        </g>
        <g id="Grupo_1229955" data-name="Grupo 1229955" transform="translate(45.083 33.947)">
          <g id="Grupo_1229932" data-name="Grupo 1229932">
            <g id="Grupo_1229931" data-name="Grupo 1229931">
              <path id="Trazado_1307979" data-name="Trazado 1307979" d="M71.318,60.018c1.714-.99,3.111-.194,3.117,1.776a6.827,6.827,0,0,1-3.1,5.353L58.725,74.36c-1.714.99-3.1.189-3.108-1.771A6.811,6.811,0,0,1,58.7,67.231Z" transform="translate(-55.617 -59.592)" fill="#dba660"/>
            </g>
          </g>
          <g id="Grupo_1229954" data-name="Grupo 1229954" transform="translate(2.37 2.389)">
            <g id="Grupo_1229935" data-name="Grupo 1229935" transform="translate(0 6.244)">
              <g id="Grupo_1229934" data-name="Grupo 1229934">
                <g id="Grupo_1229933" data-name="Grupo 1229933">
                  <path id="Trazado_1307980" data-name="Trazado 1307980" d="M59.162,68.76A2.479,2.479,0,0,1,60,68.433c.078-.013.118.028.119.126a.357.357,0,0,1-.046.168.311.311,0,0,1-.122.135.179.179,0,0,1-.068.02,2.123,2.123,0,0,0-.682.262,1.855,1.855,0,0,0-.544.46.859.859,0,0,0-.209.53.234.234,0,0,0,.1.227.393.393,0,0,0,.25.027,3.507,3.507,0,0,0,.41-.107,3.409,3.409,0,0,1,.54-.127.461.461,0,0,1,.352.084.531.531,0,0,1,.148.441,1.342,1.342,0,0,1-.135.567,2.113,2.113,0,0,1-.38.559,2.673,2.673,0,0,1-1.576.8.1.1,0,0,1-.085-.03.145.145,0,0,1-.033-.1.352.352,0,0,1,.048-.172.331.331,0,0,1,.125-.133.188.188,0,0,1,.081-.027,1.94,1.94,0,0,0,.834-.282q.742-.428.74-.988a.184.184,0,0,0-.1-.189.409.409,0,0,0-.236-.018q-.14.026-.4.1a4.288,4.288,0,0,1-.555.123.526.526,0,0,1-.365-.075.475.475,0,0,1-.153-.418,1.459,1.459,0,0,1,.126-.577,2.075,2.075,0,0,1,.373-.577,2.414,2.414,0,0,1,.6-.477Z" transform="translate(-58.044 -68.431)" fill="#fff"/>
                </g>
              </g>
            </g>
            <g id="Grupo_1229938" data-name="Grupo 1229938" transform="translate(2.663 5.588)">
              <g id="Grupo_1229937" data-name="Grupo 1229937">
                <g id="Grupo_1229936" data-name="Grupo 1229936">
                  <path id="Trazado_1307981" data-name="Trazado 1307981" d="M62.51,67.788a.116.116,0,0,1,.191.109l.006,2.088a.382.382,0,0,1-.054.189.371.371,0,0,1-.136.145.132.132,0,0,1-.137.013.13.13,0,0,1-.057-.125v-.2a3.4,3.4,0,0,1-.347.527,1.58,1.58,0,0,1-.44.375.624.624,0,0,1-.4.107.355.355,0,0,1-.264-.193.9.9,0,0,1-.092-.429l0-1.383a.369.369,0,0,1,.056-.188.384.384,0,0,1,.138-.144.116.116,0,0,1,.191.109l0,1.333c0,.4.156.505.467.326A1.273,1.273,0,0,0,62,70.1a3.341,3.341,0,0,0,.315-.524l0-1.46a.36.36,0,0,1,.056-.188.384.384,0,0,1,.137-.143Z" transform="translate(-60.77 -67.76)" fill="#fff"/>
                </g>
              </g>
            </g>
            <g id="Grupo_1229941" data-name="Grupo 1229941" transform="translate(5.26 3.909)">
              <g id="Grupo_1229940" data-name="Grupo 1229940">
                <g id="Grupo_1229939" data-name="Grupo 1229939">
                  <path id="Trazado_1307982" data-name="Trazado 1307982" d="M65.422,66.68a1.047,1.047,0,0,1,.148.6,2.116,2.116,0,0,1-.144.773,2.445,2.445,0,0,1-.38.668,1.831,1.831,0,0,1-.5.44.673.673,0,0,1-.725.049v.126a.369.369,0,0,1-.056.188.4.4,0,0,1-.138.144.132.132,0,0,1-.135.014.127.127,0,0,1-.056-.123l-.009-3.16a.38.38,0,0,1,.055-.19.372.372,0,0,1,.135-.143.138.138,0,0,1,.14-.018.135.135,0,0,1,.056.128l0,1.193a2.017,2.017,0,0,1,.723-.788.869.869,0,0,1,.5-.134.5.5,0,0,1,.382.228ZM65,68.263a1.51,1.51,0,0,0,.189-.757c0-.279-.065-.459-.192-.538a.484.484,0,0,0-.5.063,1.428,1.428,0,0,0-.366.311,2.464,2.464,0,0,0-.3.441l0,1.022a.524.524,0,0,0,.3.09.731.731,0,0,0,.367-.111,1.335,1.335,0,0,0,.5-.52" transform="translate(-63.429 -66.041)" fill="#fff"/>
                </g>
              </g>
            </g>
            <g id="Grupo_1229944" data-name="Grupo 1229944" transform="translate(7.935 1.986)">
              <g id="Grupo_1229943" data-name="Grupo 1229943">
                <g id="Grupo_1229942" data-name="Grupo 1229942">
                  <path id="Trazado_1307983" data-name="Trazado 1307983" d="M68.7,64.175a.528.528,0,0,1,.4-.092.359.359,0,0,1,.236.215.971.971,0,0,1,.078.4l0,1.4a.364.364,0,0,1-.057.189.39.39,0,0,1-.137.143.134.134,0,0,1-.136.015.131.131,0,0,1-.055-.124l0-1.314a.592.592,0,0,0-.1-.409c-.065-.062-.177-.046-.335.045a1.076,1.076,0,0,0-.358.336,2.655,2.655,0,0,0-.251.484l0,1.46a.369.369,0,0,1-.056.188.394.394,0,0,1-.137.143.133.133,0,0,1-.136.015.13.13,0,0,1-.056-.123l0-1.314a.6.6,0,0,0-.1-.41c-.066-.061-.177-.046-.335.045a1.071,1.071,0,0,0-.358.336,2.654,2.654,0,0,0-.251.484l0,1.46a.368.368,0,0,1-.056.188.4.4,0,0,1-.138.144.132.132,0,0,1-.135.014.127.127,0,0,1-.056-.123l-.006-2.088a.377.377,0,0,1,.055-.19.366.366,0,0,1,.135-.144.135.135,0,0,1,.139-.013.133.133,0,0,1,.057.125v.2a2.524,2.524,0,0,1,.285-.486A1.415,1.415,0,0,1,67.274,65a.536.536,0,0,1,.407-.089.361.361,0,0,1,.243.216,1.839,1.839,0,0,1,.778-.952Z" transform="translate(-66.169 -64.072)" fill="#fff"/>
                </g>
              </g>
            </g>
            <g id="Grupo_1229947" data-name="Grupo 1229947" transform="translate(11.787 0.184)">
              <g id="Grupo_1229946" data-name="Grupo 1229946">
                <g id="Grupo_1229945" data-name="Grupo 1229945">
                  <path id="Trazado_1307984" data-name="Trazado 1307984" d="M70.506,62.242a.146.146,0,0,1,.064.138v.02a.422.422,0,0,1-.063.211.416.416,0,0,1-.152.161l-.026.015a.132.132,0,0,1-.216-.123v-.02a.423.423,0,0,1,.063-.211.417.417,0,0,1,.152-.161l.026-.015A.145.145,0,0,1,70.506,62.242Z" transform="translate(-70.113 -62.227)" fill="#fff"/>
                </g>
              </g>
            </g>
            <g id="Grupo_1229950" data-name="Grupo 1229950" transform="translate(11.824 1.192)">
              <g id="Grupo_1229949" data-name="Grupo 1229949">
                <g id="Grupo_1229948" data-name="Grupo 1229948">
                  <path id="Trazado_1307985" data-name="Trazado 1307985" d="M70.34,63.288a.118.118,0,0,1,.2.112l.006,2.088a.364.364,0,0,1-.057.189.394.394,0,0,1-.137.143.134.134,0,0,1-.136.015.131.131,0,0,1-.055-.124l-.006-2.088a.382.382,0,0,1,.054-.189A.371.371,0,0,1,70.34,63.288Z" transform="translate(-70.15 -63.258)" fill="#fff"/>
                </g>
              </g>
            </g>
            <g id="Grupo_1229953" data-name="Grupo 1229953" transform="translate(12.624)">
              <g id="Grupo_1229952" data-name="Grupo 1229952">
                <g id="Grupo_1229951" data-name="Grupo 1229951">
                  <path id="Trazado_1307986" data-name="Trazado 1307986" d="M71.653,62.049a.053.053,0,0,1,.058,0,.063.063,0,0,1,.023.055v.39l.479-.276a.118.118,0,0,1,.119-.015.115.115,0,0,1,.047.109.328.328,0,0,1-.046.161.321.321,0,0,1-.119.125l-.479.276,0,1.47c0,.126.027.191.079.195a.353.353,0,0,0,.2-.062.956.956,0,0,0,.169-.128l.036-.03a.294.294,0,0,1,.049-.033.1.1,0,0,1,.106-.01.1.1,0,0,1,.047.1.348.348,0,0,1-.1.227,1.445,1.445,0,0,1-.35.29q-.619.358-.62-.286l0-1.508-.3.174a.058.058,0,0,1-.057.007.056.056,0,0,1-.024-.053.189.189,0,0,1,.038-.1l.574-.981A.233.233,0,0,1,71.653,62.049Z" transform="translate(-70.969 -62.038)" fill="#fff"/>
                </g>
              </g>
            </g>
          </g>
        </g>
        <g id="Grupo_1229986" data-name="Grupo 1229986" transform="translate(0 48.106)">
          <g id="Grupo_1229958" data-name="Grupo 1229958" transform="translate(0.008 2.69)">
            <g id="Grupo_1229957" data-name="Grupo 1229957">
              <g id="Grupo_1229956" data-name="Grupo 1229956">
                <path id="Trazado_1307987" data-name="Trazado 1307987" d="M49.972,76.845l0,1.062L9.467,101.32l0-1.062Z" transform="translate(-9.464 -76.845)" fill="#dedffb"/>
              </g>
            </g>
          </g>
          <g id="Grupo_1229965" data-name="Grupo 1229965" transform="translate(0.008 8.124)">
            <g id="Grupo_1229960" data-name="Grupo 1229960" transform="translate(31.148)">
              <g id="Grupo_1229959" data-name="Grupo 1229959">
                <path id="Trazado_1307988" data-name="Trazado 1307988" d="M41.357,88.881l9.362-5.411,0-1.062-9.359,5.41Z" transform="translate(-41.357 -82.408)" fill="#dedffb"/>
              </g>
            </g>
            <g id="Grupo_1229962" data-name="Grupo 1229962" transform="translate(9.677 6.455)">
              <g id="Grupo_1229961" data-name="Grupo 1229961">
                <path id="Trazado_1307989" data-name="Trazado 1307989" d="M39.035,89.017,19.373,100.382v1.064L39.035,90.081Z" transform="translate(-19.373 -89.017)" fill="#dedffb"/>
              </g>
            </g>
            <g id="Grupo_1229964" data-name="Grupo 1229964" transform="translate(0 19.568)">
              <g id="Grupo_1229963" data-name="Grupo 1229963">
                <path id="Trazado_1307990" data-name="Trazado 1307990" d="M16.116,102.444l-6.652,3.845,0,1.062,6.649-3.843Z" transform="translate(-9.464 -102.444)" fill="#dedffb"/>
              </g>
            </g>
          </g>
          <g id="Grupo_1229968" data-name="Grupo 1229968" transform="translate(0.008 10.84)">
            <g id="Grupo_1229967" data-name="Grupo 1229967">
              <g id="Grupo_1229966" data-name="Grupo 1229966">
                <path id="Trazado_1307991" data-name="Trazado 1307991" d="M49.972,85.189l0,1.062L9.467,109.665l0-1.062Z" transform="translate(-9.464 -85.189)" fill="#dedffb"/>
              </g>
            </g>
          </g>
          <g id="Grupo_1229973" data-name="Grupo 1229973" transform="translate(0.008 13.557)">
            <g id="Grupo_1229970" data-name="Grupo 1229970" transform="translate(20.966)">
              <g id="Grupo_1229969" data-name="Grupo 1229969">
                <path id="Trazado_1307992" data-name="Trazado 1307992" d="M30.932,100.33l19.544-11.3,0-1.062L30.932,99.266Z" transform="translate(-30.932 -87.971)" fill="#dedffb"/>
              </g>
            </g>
            <g id="Grupo_1229972" data-name="Grupo 1229972" transform="translate(0 12.575)">
              <g id="Grupo_1229971" data-name="Grupo 1229971">
                <path id="Trazado_1307993" data-name="Trazado 1307993" d="M28.216,100.846,9.464,111.685l0,1.062L28.216,101.91Z" transform="translate(-9.464 -100.846)" fill="#dedffb"/>
              </g>
            </g>
          </g>
          <g id="Grupo_1229978" data-name="Grupo 1229978" transform="translate(0.015 5.444)">
            <g id="Grupo_1229975" data-name="Grupo 1229975" transform="translate(0 12.454)">
              <g id="Grupo_1229974" data-name="Grupo 1229974">
                <path id="Trazado_1307994" data-name="Trazado 1307994" d="M28.374,92.416l-18.9,10.923,0,1.062,18.9-10.922Z" transform="translate(-9.472 -92.416)" fill="#dedffb"/>
              </g>
            </g>
            <g id="Grupo_1229977" data-name="Grupo 1229977" transform="translate(21.117)">
              <g id="Grupo_1229976" data-name="Grupo 1229976">
                <path id="Trazado_1307995" data-name="Trazado 1307995" d="M31.094,90.838V91.9L50.43,80.728V79.664Z" transform="translate(-31.094 -79.664)" fill="#dedffb"/>
              </g>
            </g>
          </g>
          <g id="Grupo_1229985" data-name="Grupo 1229985">
            <g id="Grupo_1229980" data-name="Grupo 1229980" transform="translate(0 18.418)">
              <g id="Grupo_1229979" data-name="Grupo 1229979">
                <path id="Trazado_1307996" data-name="Trazado 1307996" d="M18.054,92.948l-8.6,4.968,0,1.062,8.594-4.966Z" transform="translate(-9.456 -92.948)" fill="#dedffb"/>
              </g>
            </g>
            <g id="Grupo_1229982" data-name="Grupo 1229982" transform="translate(10.851 5.141)">
              <g id="Grupo_1229981" data-name="Grupo 1229981">
                <path id="Trazado_1307997" data-name="Trazado 1307997" d="M41.287,79.354,20.567,91.328v1.064l20.72-11.974Z" transform="translate(-20.567 -79.354)" fill="#dedffb"/>
              </g>
            </g>
            <g id="Grupo_1229984" data-name="Grupo 1229984" transform="translate(33.627)">
              <g id="Grupo_1229983" data-name="Grupo 1229983">
                <path id="Trazado_1307998" data-name="Trazado 1307998" d="M43.888,78.043v1.064l6.841-3.953V74.09Z" transform="translate(-43.888 -74.09)" fill="#dedffb"/>
              </g>
            </g>
          </g>
        </g>
        <g id="Grupo_1229989" data-name="Grupo 1229989" transform="translate(61.266 43.099)">
          <g id="Grupo_1229988" data-name="Grupo 1229988">
            <g id="Grupo_1229987" data-name="Grupo 1229987">
              <path id="Trazado_1307999" data-name="Trazado 1307999" d="M72.186,70.312l3.5-1.349-1.02,1.766,2.375,1.353-.868,1.5L73.8,72.232,72.78,74Z" transform="translate(-72.186 -68.963)" fill="#4c5c75"/>
            </g>
          </g>
        </g>
      </g>
    </g>
  </g>
</svg>
